<svg width="67" height="32" viewBox="0 0 67 32" fill="none" xmlns="http://www.w3.org/2000/svg">
<g clip-path="url(#clip0_15_18)">
<path d="M31.6418 11.6869C31.759 11.5697 31.8267 11.4126 31.8301 11.2501C31.8334 11.0877 31.772 10.9332 31.6595 10.8207C31.547 10.7082 31.3925 10.6468 31.2301 10.6501C31.0676 10.6534 30.9105 10.7211 30.7933 10.8384C30.6761 10.9556 30.6084 11.1127 30.6051 11.2751C30.6017 11.4376 30.6631 11.592 30.7756 11.7046C30.8881 11.8171 31.0426 11.8784 31.2051 11.8751C31.3675 11.8718 31.5246 11.8041 31.6418 11.6869V11.6869ZM34.6992 10.3249C34.8117 10.4374 34.8731 10.5919 34.8698 10.7543C34.8665 10.9167 34.7987 11.0739 34.6815 11.1911C34.5643 11.3083 34.4072 11.376 34.2448 11.3793C34.0823 11.3826 33.9278 11.3213 33.8153 11.2087C33.7028 11.0962 33.6415 10.9417 33.6448 10.7793C33.6481 10.6169 33.7158 10.4597 33.833 10.3425C33.9502 10.2253 34.1073 10.1576 34.2698 10.1543C34.4322 10.151 34.5867 10.2123 34.6992 10.3249V10.3249ZM34.1857 14.2308C34.3029 14.1136 34.3706 13.9565 34.3739 13.794C34.3773 13.6316 34.3159 13.4771 34.2034 13.3646C34.0909 13.252 33.9364 13.1907 33.7739 13.194C33.6115 13.1973 33.4544 13.265 33.3372 13.3822C33.22 13.4995 33.1523 13.6566 33.1489 13.819C33.1456 13.9815 33.207 14.1359 33.3195 14.2484C33.432 14.361 33.5865 14.4223 33.7489 14.419C33.9114 14.4157 34.0685 14.348 34.1857 14.2308V14.2308ZM27.1885 10.7691C26.5538 10.1344 26.5424 9.03583 27.3117 8.39976C29.8174 6.32932 32.9707 5.24307 36.1487 5.35563C37.1278 5.3889 37.732 6.28743 37.5683 7.19861C37.3316 8.51886 37.0954 9.83918 36.8598 11.1596C37.0443 11.3459 37.1648 11.4664 37.3222 11.6229L37.5891 11.8898C37.6977 11.9982 37.7802 12.1302 37.8308 12.2763C37.8814 12.4224 37.8988 12.5792 37.8819 12.7356C37.865 12.8919 37.8142 13.0441 37.733 13.1813C37.6518 13.3185 37.5422 13.4375 37.4119 13.5298C37.6722 13.9704 37.6478 14.5896 37.2006 15.0368C36.8912 15.3462 36.5007 15.4524 36.1437 15.4021L35.9637 16.3933C35.7622 17.507 34.3911 17.9761 33.6122 17.1963L27.1885 10.7691ZM27.8797 9.09859C27.5851 9.34228 27.5488 9.80538 27.8513 10.1079L28.072 10.3285C29.2259 9.26357 30.5853 8.44986 32.058 7.94246C33.5308 7.43505 35.0825 7.24579 36.6082 7.38748L36.6644 7.07333C36.7416 6.6397 36.4548 6.28752 36.0798 6.27483C33.1311 6.16998 30.2052 7.17744 27.8802 9.09815L27.8797 9.09859ZM34.2751 16.5343C34.5351 16.7943 34.9925 16.6382 35.0598 16.2672L35.349 14.6755C35.3643 14.5917 35.4023 14.5128 35.4588 14.4476C35.5153 14.3823 35.5881 14.3333 35.6692 14.3057C35.7503 14.2782 35.8365 14.2733 35.9183 14.2915C36.0001 14.3098 36.0743 14.3505 36.1328 14.4092C36.2474 14.5238 36.4373 14.529 36.5646 14.4017C36.594 14.3729 36.6176 14.3387 36.6341 14.3011C36.6505 14.2636 36.6595 14.2234 36.6604 14.183C36.6613 14.1427 36.6541 14.1028 36.6393 14.0658C36.6246 14.0289 36.6025 13.9955 36.5743 13.9677L36.0419 13.4353C35.9575 13.3509 35.9115 13.235 35.9139 13.1132C35.9164 12.9914 35.9672 12.8735 36.0551 12.7856C36.143 12.6977 36.2609 12.6469 36.3827 12.6444C36.5045 12.642 36.6204 12.688 36.7048 12.7724C36.7646 12.8322 36.8603 12.8298 36.9209 12.7693C36.9502 12.7399 36.9671 12.7007 36.9679 12.6601C36.9688 12.6194 36.9534 12.5808 36.9253 12.5527L36.6614 12.2888C36.4615 12.0898 36.3177 11.9469 36.0319 11.6549C35.9826 11.6048 35.9462 11.5433 35.9257 11.4755C35.9051 11.4077 35.9009 11.3353 35.9134 11.2642C36.0337 10.5872 36.2478 9.39234 36.4441 8.29823C35.0615 8.17582 33.6566 8.35033 32.3227 8.81017C30.9889 9.27002 29.7567 10.0047 28.7079 10.9653L34.276 16.5334L34.2751 16.5343Z" fill="#56F09F"/>
</g>
<path d="M8.97 19.77C9.49667 19.77 9.94667 19.86 10.32 20.04C10.6933 20.2133 10.98 20.4667 11.18 20.8C11.3867 21.1333 11.49 21.5367 11.49 22.01C11.49 22.2967 11.4467 22.58 11.36 22.86C11.2733 23.1333 11.1333 23.3833 10.94 23.61C10.7533 23.83 10.5067 24.0067 10.2 24.14C9.89333 24.2733 9.52 24.34 9.08 24.34H8.01V27H7.04V19.77H8.97ZM9.07 23.41C9.35667 23.41 9.59333 23.3633 9.78 23.27C9.96667 23.1767 10.1133 23.06 10.22 22.92C10.3267 22.7733 10.4033 22.62 10.45 22.46C10.4967 22.3 10.52 22.1567 10.52 22.03C10.52 21.8833 10.4967 21.7333 10.45 21.58C10.4033 21.42 10.3233 21.2767 10.21 21.15C10.1033 21.0167 9.96 20.91 9.78 20.83C9.60667 20.7433 9.39 20.7 9.13 20.7H8.01V23.41H9.07ZM12.7573 22.86H13.6873V27H12.7573V22.86ZM12.6873 21.36C12.6873 21.2133 12.7439 21.09 12.8573 20.99C12.9773 20.89 13.1073 20.84 13.2473 20.84C13.3873 20.84 13.5106 20.89 13.6173 20.99C13.7306 21.09 13.7873 21.2133 13.7873 21.36C13.7873 21.5133 13.7306 21.64 13.6173 21.74C13.5106 21.8333 13.3873 21.88 13.2473 21.88C13.1073 21.88 12.9773 21.83 12.8573 21.73C12.7439 21.63 12.6873 21.5067 12.6873 21.36ZM15.6763 23.62C15.4697 23.62 15.293 23.5567 15.1463 23.43C14.9997 23.3033 14.9263 23.1133 14.9263 22.86V22.47H15.6363V22.6C15.6363 22.7067 15.663 22.7767 15.7163 22.81C15.7697 22.8433 15.8563 22.86 15.9763 22.86H18.6263L16.1463 26.43L15.9663 26.23H18.5963V27H14.7663L17.2963 23.36L17.4563 23.62H15.6763ZM20.3052 23.62C20.0986 23.62 19.9219 23.5567 19.7752 23.43C19.6286 23.3033 19.5552 23.1133 19.5552 22.86V22.47H20.2652V22.6C20.2652 22.7067 20.2919 22.7767 20.3452 22.81C20.3986 22.8433 20.4852 22.86 20.6052 22.86H23.2552L20.7752 26.43L20.5952 26.23H23.2252V27H19.3952L21.9252 23.36L22.0852 23.62H20.3052ZM26.2741 27.1C25.8875 27.1 25.5341 27.0167 25.2141 26.85C24.9008 26.6833 24.6508 26.44 24.4641 26.12C24.2841 25.7933 24.1941 25.3967 24.1941 24.93C24.1941 24.47 24.2908 24.0733 24.4841 23.74C24.6775 23.4 24.9341 23.14 25.2541 22.96C25.5808 22.78 25.9375 22.69 26.3241 22.69C26.7108 22.69 27.0375 22.78 27.3041 22.96C27.5708 23.1333 27.7741 23.34 27.9141 23.58L27.8541 23.74L27.9441 22.86H28.8041V27H27.8741V25.92L27.9741 26.16C27.9475 26.2267 27.8875 26.3133 27.7941 26.42C27.7075 26.52 27.5875 26.6233 27.4341 26.73C27.2875 26.8367 27.1175 26.9267 26.9241 27C26.7308 27.0667 26.5141 27.1 26.2741 27.1ZM26.5241 26.33C26.7575 26.33 26.9675 26.2867 27.1541 26.2C27.3408 26.1133 27.4941 25.9933 27.6141 25.84C27.7408 25.68 27.8275 25.49 27.8741 25.27V24.46C27.8208 24.26 27.7275 24.0867 27.5941 23.94C27.4608 23.7867 27.3008 23.67 27.1141 23.59C26.9275 23.5033 26.7208 23.46 26.4941 23.46C26.2475 23.46 26.0208 23.52 25.8141 23.64C25.6075 23.76 25.4408 23.9267 25.3141 24.14C25.1941 24.3533 25.1341 24.6033 25.1341 24.89C25.1341 25.1567 25.1975 25.4 25.3241 25.62C25.4508 25.84 25.6208 26.0133 25.8341 26.14C26.0475 26.2667 26.2775 26.33 26.5241 26.33ZM35.7376 19.77C36.2642 19.77 36.7142 19.86 37.0876 20.04C37.4609 20.2133 37.7476 20.4667 37.9476 20.8C38.1542 21.1333 38.2576 21.5367 38.2576 22.01C38.2576 22.2967 38.2142 22.58 38.1276 22.86C38.0409 23.1333 37.9009 23.3833 37.7076 23.61C37.5209 23.83 37.2742 24.0067 36.9676 24.14C36.6609 24.2733 36.2876 24.34 35.8476 24.34H34.7776V27H33.8076V19.77H35.7376ZM35.8376 23.41C36.1242 23.41 36.3609 23.3633 36.5476 23.27C36.7342 23.1767 36.8809 23.06 36.9876 22.92C37.0942 22.7733 37.1709 22.62 37.2176 22.46C37.2642 22.3 37.2876 22.1567 37.2876 22.03C37.2876 21.8833 37.2642 21.7333 37.2176 21.58C37.1709 21.42 37.0909 21.2767 36.9776 21.15C36.8709 21.0167 36.7276 20.91 36.5476 20.83C36.3742 20.7433 36.1576 20.7 35.8976 20.7H34.7776V23.41H35.8376ZM39.5248 19.26H40.4548V27H39.5248V19.26ZM43.7839 27.1C43.3972 27.1 43.0439 27.0167 42.7239 26.85C42.4106 26.6833 42.1606 26.44 41.9739 26.12C41.7939 25.7933 41.7039 25.3967 41.7039 24.93C41.7039 24.47 41.8006 24.0733 41.9939 23.74C42.1872 23.4 42.4439 23.14 42.7639 22.96C43.0906 22.78 43.4472 22.69 43.8339 22.69C44.2206 22.69 44.5472 22.78 44.8139 22.96C45.0806 23.1333 45.2839 23.34 45.4239 23.58L45.3639 23.74L45.4539 22.86H46.3139V27H45.3839V25.92L45.4839 26.16C45.4572 26.2267 45.3972 26.3133 45.3039 26.42C45.2172 26.52 45.0972 26.6233 44.9439 26.73C44.7972 26.8367 44.6272 26.9267 44.4339 27C44.2406 27.0667 44.0239 27.1 43.7839 27.1ZM44.0339 26.33C44.2672 26.33 44.4772 26.2867 44.6639 26.2C44.8506 26.1133 45.0039 25.9933 45.1239 25.84C45.2506 25.68 45.3372 25.49 45.3839 25.27V24.46C45.3306 24.26 45.2372 24.0867 45.1039 23.94C44.9706 23.7867 44.8106 23.67 44.6239 23.59C44.4372 23.5033 44.2306 23.46 44.0039 23.46C43.7572 23.46 43.5306 23.52 43.3239 23.64C43.1172 23.76 42.9506 23.9267 42.8239 24.14C42.7039 24.3533 42.6439 24.6033 42.6439 24.89C42.6439 25.1567 42.7072 25.4 42.8339 25.62C42.9606 25.84 43.1306 26.0133 43.3439 26.14C43.5572 26.2667 43.7872 26.33 44.0339 26.33ZM48.7533 22.86L48.8333 23.87L48.7933 23.71C48.9266 23.4033 49.1433 23.16 49.4433 22.98C49.7433 22.7933 50.0899 22.7 50.4833 22.7C50.8766 22.7 51.1966 22.8167 51.4433 23.05C51.6966 23.2767 51.8266 23.5733 51.8333 23.94V27H50.8933V24.27C50.8866 24.0433 50.8199 23.86 50.6933 23.72C50.5733 23.5733 50.3833 23.5 50.1233 23.5C49.8833 23.5 49.6666 23.5667 49.4733 23.7C49.2799 23.8333 49.1266 24.0167 49.0133 24.25C48.9066 24.4833 48.8533 24.7533 48.8533 25.06V27H47.9233V22.86H48.7533ZM55.3706 27.1C54.8973 27.1 54.4906 27.0067 54.1506 26.82C53.8106 26.6267 53.5473 26.3667 53.3606 26.04C53.1806 25.7067 53.0906 25.3267 53.0906 24.9C53.0906 24.4933 53.194 24.1233 53.4006 23.79C53.6073 23.4567 53.884 23.19 54.2306 22.99C54.5773 22.79 54.964 22.69 55.3906 22.69C55.9373 22.69 56.3906 22.85 56.7506 23.17C57.1106 23.49 57.354 23.93 57.4806 24.49L54.0706 25.69L53.8506 25.14L56.6506 24.12L56.4506 24.25C56.3706 24.03 56.2373 23.84 56.0506 23.68C55.864 23.5133 55.6206 23.43 55.3206 23.43C55.0673 23.43 54.8406 23.4933 54.6406 23.62C54.4406 23.74 54.284 23.9067 54.1706 24.12C54.0573 24.3333 54.0006 24.5767 54.0006 24.85C54.0006 25.1367 54.0606 25.39 54.1806 25.61C54.3006 25.8233 54.464 25.9933 54.6706 26.12C54.884 26.24 55.124 26.3 55.3906 26.3C55.5706 26.3 55.744 26.2667 55.9106 26.2C56.084 26.1333 56.244 26.0467 56.3906 25.94L56.8206 26.63C56.614 26.77 56.3806 26.8833 56.1206 26.97C55.8673 27.0567 55.6173 27.1 55.3706 27.1ZM59.0459 21.04H59.9759V22.88H61.1159V23.61H59.9759V27H59.0459V23.61H58.2859V22.88H59.0459V21.04Z" fill="#56F09F"/>
<line y1="31.5" x2="67" y2="31.5" stroke="#56F09F"/>
<line y1="15.5" x2="26" y2="15.5" stroke="#56F09F"/>
<line x1="41" y1="15.5" x2="67" y2="15.5" stroke="#56F09F"/>
<defs>
<clipPath id="clip0_15_18">
<rect width="15" height="15" fill="white" transform="translate(23 11) rotate(-45)"/>
</clipPath>
</defs>
</svg>
